<svg width="15" height="15" viewBox="0 0 15 15" fill="none" xmlns="http://www.w3.org/2000/svg">
<path fill-rule="evenodd" clip-rule="evenodd" d="M9.06447 0.356074C8.70027 -0.0591089 8.06845 -0.100439 7.65327 0.263761C7.23809 0.62796 7.19676 1.25977 7.56096 1.67496L11.7935 6.49998H0.999268C0.446983 6.49998 -0.000732422 6.94769 -0.000732422 7.49998C-0.000732422 8.05226 0.446983 8.49998 0.999268 8.49998H11.7934L7.56096 13.3249C7.19676 13.7401 7.23809 14.3719 7.65327 14.7361C8.06845 15.1003 8.70027 15.059 9.06447 14.6438L14.7526 8.1594C14.8842 8.00946 14.9634 7.83003 14.9904 7.64453C15.0048 7.54583 15.0044 7.44542 14.9891 7.34683C14.976 7.26149 14.9521 7.17972 14.9189 7.10293C14.8784 7.0094 14.823 6.92073 14.7526 6.84051L9.06447 0.356074Z" fill="white"/>
</svg>
