<svg width="25" height="26" viewBox="0 0 25 26" fill="none" xmlns="http://www.w3.org/2000/svg">
<path fill-rule="evenodd" clip-rule="evenodd" d="M3 3C2.44772 3 2 3.44772 2 4C2 4.55228 2.44772 5 3 5H5.45304L6.10336 8.24915C6.10754 8.27546 6.11275 8.30142 6.11894 8.327L7.48461 15.1503L7.48479 15.1511C7.60547 15.7577 7.93554 16.3025 8.41729 16.6903C8.89649 17.0761 9.49541 17.282 10.1103 17.2727H18.0461C18.6609 17.282 19.2599 17.0761 19.7391 16.6903C20.2211 16.3023 20.5512 15.7572 20.6717 15.1503L20.6718 15.1503L20.6732 15.1428L21.9823 8.27824C22.0381 7.98549 21.9605 7.68309 21.7705 7.45346C21.5805 7.22384 21.298 7.09091 21 7.09091H7.9112L7.25328 3.80374C7.15974 3.33639 6.74935 3 6.27273 3H3ZM9.44601 14.7592L8.3115 9.09091H19.7913L18.7101 14.7606L18.7095 14.7635C18.6799 14.9088 18.6005 15.0393 18.4849 15.1324C18.3686 15.226 18.223 15.2758 18.0737 15.2729L18.0545 15.2727H10.1018L10.0827 15.2729C9.93333 15.2758 9.78776 15.226 9.67142 15.1324C9.55508 15.0387 9.47539 14.9071 9.4463 14.7606L9.44601 14.7592ZM9.54572 20.5454C9.64614 20.5454 9.72754 20.464 9.72754 20.3636C9.72754 20.2632 9.64614 20.1818 9.54572 20.1818C9.44531 20.1818 9.3639 20.2632 9.3639 20.3636C9.3639 20.464 9.44531 20.5454 9.54572 20.5454ZM7.72754 20.3636C7.72754 19.3594 8.54157 18.5454 9.54572 18.5454C10.5499 18.5454 11.3639 19.3594 11.3639 20.3636C11.3639 21.3677 10.5499 22.1818 9.54572 22.1818C8.54157 22.1818 7.72754 21.3677 7.72754 20.3636ZM18.5457 20.5454C18.6461 20.5454 18.7275 20.464 18.7275 20.3636C18.7275 20.2632 18.6461 20.1818 18.5457 20.1818C18.4453 20.1818 18.3639 20.2632 18.3639 20.3636C18.3639 20.464 18.4453 20.5454 18.5457 20.5454ZM16.7275 20.3636C16.7275 19.3594 17.5416 18.5454 18.5457 18.5454C19.5499 18.5454 20.3639 19.3594 20.3639 20.3636C20.3639 21.3677 19.5499 22.1818 18.5457 22.1818C17.5416 22.1818 16.7275 21.3677 16.7275 20.3636Z" fill="#111111"/>
</svg>
