<svg width="30" height="30" viewBox="0 0 30 30" fill="none" xmlns="http://www.w3.org/2000/svg">
<rect width="30" height="30" rx="6" fill="#FEF0F0"/>
<path d="M21.7879 9.2377C21.3957 8.84531 20.9301 8.53405 20.4175 8.32168C19.905 8.10931 19.3556 8 18.8008 8C18.2461 8 17.6967 8.10931 17.1842 8.32168C16.6716 8.53405 16.206 8.84531 15.8138 9.2377L14.9998 10.0517L14.1858 9.2377C13.3936 8.44548 12.3191 8.00041 11.1987 8.00041C10.0784 8.00041 9.00388 8.44548 8.21166 9.2377C7.41943 10.0299 6.97437 11.1044 6.97437 12.2248C6.97437 13.3452 7.41943 14.4197 8.21166 15.2119L9.02562 16.0258L14.9998 22L20.974 16.0258L21.7879 15.2119C22.1803 14.8197 22.4916 14.354 22.704 13.8415C22.9163 13.3289 23.0256 12.7796 23.0256 12.2248C23.0256 11.67 22.9163 11.1206 22.704 10.6081C22.4916 10.0956 22.1803 9.62991 21.7879 9.2377V9.2377Z" fill="#FF8585"/>
</svg>
