<svg width="25" height="26" viewBox="0 0 25 26" fill="none" xmlns="http://www.w3.org/2000/svg">
<path fill-rule="evenodd" clip-rule="evenodd" d="M3 13C3 7.579 7.579 3 13 3C18.421 3 23 7.579 23 13C23 16.19 21.408 19.078 19 20.924V21H18.898C17.23 22.245 15.187 23 13 23C10.813 23 8.77 22.245 7.102 21H7V20.924C4.592 19.078 3 16.189 3 13ZM10.1235 18.236C9.59154 18.6639 9.22136 19.2604 9.074 19.927C10.242 20.604 11.584 21 13 21C14.416 21 15.758 20.604 16.926 19.927C16.7785 19.2605 16.4082 18.6641 15.8764 18.2362C15.3445 17.8083 14.6827 17.5744 14 17.573H12C11.3173 17.5742 10.6554 17.808 10.1235 18.236ZM16.7677 16.4117C17.5877 16.9574 18.2286 17.7329 18.61 18.641C20.077 17.182 21 15.176 21 13C21 8.663 17.337 5 13 5C8.663 5 5 8.663 5 13C5 15.176 5.923 17.182 7.39 18.641C7.77144 17.7329 8.41227 16.9574 9.23227 16.4117C10.0523 15.866 11.015 15.5742 12 15.573H14C14.985 15.5742 15.9477 15.866 16.7677 16.4117ZM9 11C9 8.72 10.72 7 13 7C15.28 7 17 8.72 17 11C17 13.28 15.28 15 13 15C10.72 15 9 13.28 9 11ZM11 11C11 12.178 11.822 13 13 13C14.178 13 15 12.178 15 11C15 9.822 14.178 9 13 9C11.822 9 11 9.822 11 11Z" fill="black"/>
</svg>
